# xmcd
#
# Track frame offsets: 
#        150
#        13382
#        25032
#        38670
#        49750
#        64442
#        76102
#        95547
#        113845
#        133402
#        157162
#        169697
#        191262
#        202235
#        220587
#        240792
#        262810
#        282540
#        295167
#
# Disc length: 4215 seconds
#
# Revision: 0
# Processed by: cddbd v1.5.2PL0 Copyright (c) Steve Scherf et al.
# Submitted via: ExactAudioCopyFreeDBPlugin 1.0
#
DISCID=10107513
DTITLE=Various Artist - The Best of Blues 2xCD
DYEAR=1900
DGENRE=Blues
TTITLE0=Muddy Waters - Mannish Boy
TTITLE1=Little Walker - My Babe
TTITLE2=Koko Taylor - Wang Dang Doodle
TTITLE3=Howlin' Wolf - Little Red Rooster
TTITLE4=Chuck Berry - Reelin' and Rockin'
TTITLE5=Etta James - I'd Rather Go Blind
TTITLE6=John Lee Hooker - Boom Boom
TTITLE7=Gary Moore - Still Got the Blues
TTITLE8=Johnny Winter - Shame, Shame, Shame
TTITLE9=Jon Cleary - Help Me Somebody
TTITLE10=Albert King - Born Under a Bad Sign
TTITLE11=John Lee Hooker - Chill Out (Things Gonna Change)
TTITLE12=Lightnin’ Hopkins - Shotgun Blues
TTITLE13=Freddie King - Me and My Guitar
TTITLE14=Buddy Guy - Damn Right, I've Got the Blues
TTITLE15=Ben Harper - Ground on Down
TTITLE16=Eric Clapton - Double Trouble
TTITLE17=J.J. Cale - Low Down
TTITLE18=John Mayall - Spinning Coin
EXTD=
EXTT0=
EXTT1=
EXTT2=
EXTT3=
EXTT4=
EXTT5=
EXTT6=
EXTT7=
EXTT8=
EXTT9=
EXTT10=
EXTT11=
EXTT12=
EXTT13=
EXTT14=
EXTT15=
EXTT16=
EXTT17=
EXTT18=
PLAYORDER=
